# xmcd
#
# Track frame offsets: 
#        150
#        25401
#        51847
#        79910
#        96713
#        116290
#        136598
#        155102
#        184525
#        204031
#
# Disc length: 3000 seconds
#
# Revision: 0
# Processed by: cddbd v1.5.2PL0 Copyright (c) Steve Scherf et al.
# Submitted via: ExactAudioCopy v0.95b4
#
DISCID=7e0bb60a
DTITLE=James Booker - The Piano Prince From New Orleans
DYEAR=1976
DGENRE=NOLA
TTITLE0=Life
TTITLE1=One Helluva Nerve
TTITLE2=United Our Thing Will Stand
TTITLE3=Slowly But Surely
TTITLE4=Too Much Blues
TTITLE5=Junco Partner
TTITLE6=Classified
TTITLE7=Stormy Monday
TTITLE8=Sixty Minute Man
TTITLE9=Please Send Me Someone To Love
EXTD=
EXTT0=
EXTT1=
EXTT2=
EXTT3=
EXTT4=
EXTT5=
EXTT6=
EXTT7=
EXTT8=
EXTT9=
PLAYORDER=
